<svg width="20" height="20" viewBox="0 0 20 20" fill="none" xmlns="http://www.w3.org/2000/svg">
<path fill-rule="evenodd" clip-rule="evenodd" d="M4.29688 6.71875C4.29688 6.50301 4.47176 6.32812 4.6875 6.32812H15.3125C15.5282 6.32812 15.7031 6.50301 15.7031 6.71875V11.0156H17.6562C17.872 11.0156 18.0469 11.1905 18.0469 11.4062V12.6562C18.0469 12.7442 18.0178 12.8253 17.9688 12.8906H18.2812C18.3244 12.8906 18.3594 12.9256 18.3594 12.9688V16.0938C18.3594 16.1369 18.3244 16.1719 18.2812 16.1719H1.71875C1.6756 16.1719 1.64062 16.1369 1.64062 16.0938V12.9688C1.64062 12.9256 1.6756 12.8906 1.71875 12.8906H2.03122C1.98218 12.8253 1.95312 12.7442 1.95312 12.6562V11.4062C1.95312 11.1905 2.12801 11.0156 2.34375 11.0156H4.29688V6.71875ZM2.10938 11.6406V12.6562C2.10938 12.7857 2.21431 12.8906 2.34375 12.8906H3.04688V12.6562C3.04688 12.6131 3.08185 12.5781 3.125 12.5781C3.16815 12.5781 3.20312 12.6131 3.20312 12.6562V12.8906H4.29688V12.6562C4.29688 12.6131 4.33185 12.5781 4.375 12.5781C4.41815 12.5781 4.45312 12.6131 4.45312 12.6562V12.8906H5.54688V12.6562C5.54688 12.6131 5.58185 12.5781 5.625 12.5781C5.66815 12.5781 5.70312 12.6131 5.70312 12.6562V12.8906H6.79688V12.6562C6.79688 12.6131 6.83185 12.5781 6.875 12.5781C6.91815 12.5781 6.95312 12.6131 6.95312 12.6562V12.8906H8.04688V12.6562C8.04688 12.6131 8.08185 12.5781 8.125 12.5781C8.16815 12.5781 8.20312 12.6131 8.20312 12.6562V12.8906H9.29688V12.6562C9.29688 12.6131 9.33185 12.5781 9.375 12.5781C9.41815 12.5781 9.45312 12.6131 9.45312 12.6562V12.8906H10.5469V12.6562C10.5469 12.6131 10.5819 12.5781 10.625 12.5781C10.6681 12.5781 10.7031 12.6131 10.7031 12.6562V12.8906H11.7969V12.6562C11.7969 12.6131 11.8319 12.5781 11.875 12.5781C11.9181 12.5781 11.9531 12.6131 11.9531 12.6562V12.8906H13.0469V12.6562C13.0469 12.6131 13.0819 12.5781 13.125 12.5781C13.1681 12.5781 13.2031 12.6131 13.2031 12.6562V12.8906H14.2969V12.6562C14.2969 12.6131 14.3319 12.5781 14.375 12.5781C14.4181 12.5781 14.4531 12.6131 14.4531 12.6562V12.8906H15.5469V12.6562C15.5469 12.6131 15.5819 12.5781 15.625 12.5781C15.6681 12.5781 15.7031 12.6131 15.7031 12.6562V12.8906H16.7969V12.6562C16.7969 12.6131 16.8319 12.5781 16.875 12.5781C16.9181 12.5781 16.9531 12.6131 16.9531 12.6562V12.8906H17.6562C17.7857 12.8906 17.8906 12.7857 17.8906 12.6562V11.6406H2.10938ZM17.8906 11.4844H2.10938V11.4062C2.10938 11.2768 2.21431 11.1719 2.34375 11.1719H17.6562C17.7857 11.1719 17.8906 11.2768 17.8906 11.4062V11.4844ZM15.5469 6.71875V11.0156H14.4531V6.48438H15.3125C15.4419 6.48438 15.5469 6.58931 15.5469 6.71875ZM14.2969 6.48438V11.0156H13.2031V6.48438H14.2969ZM13.0469 6.48438V11.0156H11.9531V6.48438H13.0469ZM11.7969 6.48438V11.0156H10.7031V6.48438H11.7969ZM10.5469 6.48438V11.0156H9.45312V6.48438H10.5469ZM9.29688 6.48438V11.0156H8.20312V6.48438H9.29688ZM8.04688 6.48438V11.0156H6.95312V6.48438H8.04688ZM6.79688 6.48438V11.0156H5.70312V6.48438H6.79688ZM5.54688 6.48438V11.0156H4.45312V6.71875C4.45312 6.58931 4.55806 6.48438 4.6875 6.48438H5.54688ZM18.2031 13.0469V16.0156H1.79688V13.0469H18.2031Z" fill="black"/>
</svg>
