<svg width="48" height="48" viewBox="0 0 48 48" fill="none" xmlns="http://www.w3.org/2000/svg">
<path d="M27.5453 26.7122C27.9846 26.2729 27.9846 25.5606 27.5453 25.1213C27.1059 24.6819 26.3936 24.6819 25.9543 25.1213L23.0831 27.9924L22.0453 26.9546C21.6059 26.5152 20.8936 26.5152 20.4543 26.9546C20.0149 27.3939 20.0149 28.1062 20.4543 28.5456L22.2876 30.3789C22.727 30.8182 23.4393 30.8182 23.8786 30.3789L27.5453 26.7122Z" fill="black"/>
<path fill-rule="evenodd" clip-rule="evenodd" d="M25.2127 4.85489C24.4733 4.3817 23.5263 4.3817 22.7869 4.85489L4.03692 16.8549C2.99028 17.5247 2.68483 18.9162 3.35468 19.9629C4.02453 21.0095 5.41602 21.315 6.46266 20.6451L8.24979 19.5014V37.5C8.24979 40.8137 10.9361 43.5 14.2498 43.5H33.7498C37.0635 43.5 39.7498 40.8137 39.7498 37.5V19.5013L41.5369 20.6451C42.5836 21.315 43.9751 21.0095 44.6449 19.9629C45.3148 18.9162 45.0093 17.5247 43.9627 16.8549L25.2127 4.85489ZM32.2498 27.75C32.2498 32.3064 28.5561 36 23.9998 36C19.4434 36 15.7498 32.3064 15.7498 27.75C15.7498 23.1937 19.4434 19.5 23.9998 19.5C28.5561 19.5 32.2498 23.1937 32.2498 27.75Z" fill="black"/>
</svg>
