<?xml version="1.0" encoding="utf-8"?>
<!-- Generator: Adobe Illustrator 26.0.3, SVG Export Plug-In . SVG Version: 6.00 Build 0)  -->
<svg version="1.0" id="Layer_1" xmlns="http://www.w3.org/2000/svg" xmlns:xlink="http://www.w3.org/1999/xlink" x="0px" y="0px"
	 viewBox="0 0 251.3 177.8" style="enable-background:new 0 0 251.3 177.8;" xml:space="preserve">
<path d="M56,72.8c0.8-0.6,1.9-1,2.9-0.9c1,0.1,1.9,0.8,2.2,1.7c0.2,0.7,0.3,1.4,0.2,2.1c-0.3,3.8-0.9,7.5-1.6,11.2
	c2.3-3.1,4.8-6.1,7.4-8.9c1.1-1.3,2.4-2.3,3.8-3c1-0.4,2.1-0.3,3,0.3c0.9,0.6,1.5,1.6,1.7,2.6c0.1,1.1,0,2.3-0.2,3.4
	c-0.8,3.4-1.4,6.9-1.8,10.4c-0.1,1.3,0,2.7,0.4,4c0.2,0.7,0.7,1.2,1.4,1.5c0.5,0.2,1.1,0.2,1.7,0.1c-0.2-1.6-0.2-3.2,0-4.8
	c0.5-2.9,2.1-5.6,4.4-7.3c1.3-1,2.9-1.6,4.5-1.7c1.5-0.1,3.1,0.4,4.2,1.5c1.4,1.6,2,3.7,1.8,5.8c-0.2,2.1-1.2,4-2.6,5.5
	c-1.4,1.5-2.9,2.8-4.7,3.8c1.1,0.8,2.5,1,3.8,0.7c2.1-0.5,3.9-1.9,4.8-3.9c0.2-0.5,0.6-1,1.1-1.3c1-0.5,2.3-0.2,3,0.7
	c0.4,0.9,0.4,1.9,0,2.7c-1.1,2.3-2.9,4.2-5.1,5.4c-1.6,0.9-3.5,1.4-5.4,1.4c-3,0-5.8-1.3-7.7-3.6c-2.4,0.8-5,0.7-7.4-0.4
	c-2-1.1-3.3-3-3.8-5.2c-0.7-3.3-0.5-6.7,0.4-10c0.2-0.8,0.5-1.6,0.6-2.4c-0.2,0-0.3,0.1-0.5,0.3c-2.7,3.2-5.3,6.5-8.2,9.7
	c-1.1,1.1-2.3,2.4-3.9,2.5c-1,0.1-1.9-0.4-2.5-1.2c-0.4-1-0.5-2.1-0.2-3.1c0.6-3.5,1.3-7,1.9-10.5c0.1-0.4,0.2-0.7,0.2-1.1
	c-0.2-0.2-0.3,0.1-0.5,0.2c-2.7,3.1-5.2,6.4-7.5,9.8c-2.8,4-5.2,8.2-7.2,12.7c-0.2,0.8-0.7,1.6-1.3,2.1c-0.7,0.4-1.5,0.5-2.3,0.3
	c-1.4-0.4-2.1-1.8-1.8-3.2c1.4-6.8,3.3-13.4,4.6-20.1c0.5-1.4,2.1-2.2,3.5-1.7c0.1,0,0.2,0.1,0.2,0.1c0.9,0.4,1.5,1.3,1.5,2.3
	c0,0.9-0.2,1.9-0.4,2.8c2.5-3.4,5-6.7,7.8-9.8C53.6,75,54.7,73.9,56,72.8 M85.2,88.6c-0.7,0.3-1.3,0.8-1.7,1.4
	c-1.1,1.7-1.7,3.8-1.6,5.9c1.9-0.8,3.5-2.2,4.5-4c0.4-0.7,0.5-1.6,0.4-2.4C86.6,88.8,85.9,88.5,85.2,88.6
	C85.2,88.6,85.2,88.6,85.2,88.6 M100,76.2c2.1,0,4.2,0,6.3,0v18c-0.1,0.9,0,1.7,0.2,2.6c0.3,1.2,1.1,2.2,2.2,2.7
	c1.4,0.6,3,0.4,4.3-0.5c1-0.9,1.6-2.2,1.6-3.6V76.2h6.3v19.6c0,2.6-1,5.1-2.7,7c-1.9,1.7-4.3,2.7-6.9,2.7c-2.7,0.3-5.5-0.5-7.7-2.1
	c-1.8-1.5-3-3.6-3.3-6c-0.2-1.2-0.2-2.4-0.2-3.6C100,87.9,100,82,100,76.2 M159.2,76.2h5.9V105h-5.9v-2.1c-1.5,1.6-3.6,2.5-5.8,2.5
	c-2.5,0-4.9-1.1-6.5-3c-1.4-1.7-2.2-3.7-2.3-5.9c-0.3-3,0.5-5.9,2.3-8.3c2.8-3.6,8.1-4.2,11.7-1.3c0.2,0.2,0.4,0.3,0.6,0.5
	L159.2,76.2 M154,90.7c-1.3,0.3-2.4,1.2-3,2.4c-1,2-0.5,4.5,1.3,5.9c1.8,1.4,4.4,1.2,5.9-0.4c1.7-1.9,1.7-4.8,0-6.7
	C157.1,90.8,155.5,90.3,154,90.7 M170.8,76.3c1-0.3,2-0.2,2.9,0.3c1.8,1,2.4,3.3,1.4,5.1s-3.3,2.4-5.1,1.4c-0.4-0.2-0.8-0.5-1.1-0.9
	c-0.9-1.1-1.1-2.6-0.5-3.9C168.9,77.3,169.8,76.6,170.8,76.3 M186,85.3c2.6-0.5,5.4,0.1,7.6,1.5c2.1,1.4,3.6,3.6,4.1,6.1
	c0.3,1.4,0.3,2.8,0.3,4.2h-14.9c0.3,1.4,1.2,2.6,2.6,3.2c1.8,0.9,4,0.5,5.4-0.9h6.4c-0.8,1.9-2.2,3.6-3.9,4.7
	c-2,1.2-4.3,1.7-6.6,1.5c-2.8-0.1-5.5-1.4-7.3-3.6c-1.6-2.1-2.4-4.8-2.2-7.4C177.8,89.9,181.3,86,186,85.3 M185.3,90.6
	c-0.9,0.6-1.6,1.4-1.9,2.4c3,0,6.1,0,9.1,0c-0.4-1.2-1.2-2.1-2.3-2.7C188.6,89.6,186.8,89.7,185.3,90.6 M201.3,87.4
	c1.7-1.6,4-2.4,6.4-2.2c2.3-0.2,4.5,0.6,6.3,2c1.1,1.1,1.8,2.5,1.9,4.1h-6c-0.1-0.7-0.6-1.2-1.3-1.4c-0.9-0.3-1.8-0.1-2.5,0.4
	c-0.5,0.4-0.5,1.1-0.1,1.5c0.1,0.1,0.1,0.1,0.2,0.2c1,0.4,2.1,0.7,3.2,0.9c1.8,0.4,3.8,0.7,5.2,2.1c1,1,1.5,2.4,1.5,3.8v0.4
	c0,1.7-0.8,3.4-2.1,4.5c-1.9,1.5-4.3,2.1-6.6,1.9c-2.1,0-4.2-0.7-5.9-2c-1.1-1.1-1.8-2.5-1.9-4.1h6.2c0.6,1.2,2.2,1.3,3.4,0.9
	c0.7-0.2,1.1-0.9,0.9-1.6c0-0.2-0.1-0.3-0.2-0.5c-0.7-0.5-1.6-0.7-2.4-0.8c-1.9-0.2-3.8-0.8-5.4-1.8c-1.3-0.8-2.1-2.2-2.2-3.7
	C199.5,90.2,200.1,88.6,201.3,87.4 M132.6,85.8c1.4-0.5,3-0.7,4.5-0.4c1.8,0.3,3.3,1.3,4.2,2.8c0.8,1.4,1.2,2.9,1.1,4.5v12.4h-6.1
	c0-3.6,0-7.2,0-10.8c0.1-1.2-0.2-2.4-1-3.3c-1.4-1.1-3.4-0.9-4.5,0.5c0,0,0,0,0,0c-0.5,0.8-0.8,1.8-0.8,2.8c0,3.6,0,7.2,0,10.8h-6
	V85.7h6c0,0.7,0,1.4,0,2.2c0.7-0.9,1.6-1.6,2.6-2.1 M168.8,86.3h6.2v18.8h-6.4V86.3L168.8,86.3z"/>
</svg>
