<?xml version="1.0" encoding="utf-8"?>
<!-- Generator: Adobe Illustrator 19.2.1, SVG Export Plug-In . SVG Version: 6.00 Build 0)  -->
<svg version="1.1" id="layer" xmlns="http://www.w3.org/2000/svg" xmlns:xlink="http://www.w3.org/1999/xlink" x="0px" y="0px"
	 viewBox="0 0 652 652" style="enable-background:new 0 0 652 652;" xml:space="preserve">
<style type="text/css">
	.st0{fill:#3A3A3A;}
</style>
<path class="st0" d="M175.5,336.4c1,1.6,2.3,2.7,3.8,3.7c1.6,0.9,3.3,1.6,5.3,1.9c2,0.4,4,0.6,6.1,0.6c1.6,0,3.3-0.1,5.1-0.3
	c1.8-0.2,3.4-0.6,5-1.3c1.5-0.6,2.7-1.6,3.7-2.8c1-1.2,1.5-2.7,1.5-4.6c0-2.6-1-4.6-3-5.9c-2-1.4-4.6-2.5-7.6-3.2
	c-3-0.8-6.3-1.6-9.9-2.3c-3.6-0.7-6.9-1.6-9.9-2.8c-3-1.2-5.6-2.9-7.6-5.1c-2-2.2-3-5.2-3-9.2c0-3.1,0.7-5.7,2.1-7.9
	c1.4-2.2,3.3-4,5.5-5.3c2.2-1.4,4.8-2.4,7.6-3.1c2.8-0.6,5.5-1,8.3-1c3.5,0,6.8,0.3,9.8,0.9c3,0.6,5.7,1.6,8,3
	c2.3,1.5,4.1,3.4,5.5,5.9c1.4,2.5,2.2,5.5,2.4,9.3h-10.3c-0.1-2-0.7-3.6-1.6-4.9s-2-2.3-3.4-3.1c-1.4-0.8-2.9-1.3-4.6-1.7
	c-1.7-0.4-3.3-0.5-5.1-0.5c-1.6,0-3.1,0.1-4.7,0.3c-1.6,0.2-3,0.6-4.3,1.2c-1.3,0.6-2.4,1.4-3.1,2.4c-0.8,1-1.2,2.3-1.2,3.8
	c0,1.7,0.6,3.2,1.9,4.3c1.2,1.1,2.8,2.1,4.8,2.8c1.9,0.8,4.1,1.4,6.5,1.9c2.5,0.5,4.9,1,7.3,1.6c2.6,0.6,5.1,1.2,7.6,2
	c2.5,0.8,4.7,1.8,6.6,3.1c1.9,1.3,3.4,2.9,4.6,4.9c1.2,2,1.8,4.4,1.8,7.3c0,3.7-0.8,6.8-2.4,9.2c-1.6,2.5-3.7,4.4-6.2,5.9
	c-2.6,1.5-5.4,2.5-8.6,3.1c-3.2,0.6-6.4,0.9-9.5,0.9c-3.5,0-6.8-0.3-10-1c-3.1-0.7-5.9-1.9-8.4-3.5c-2.4-1.6-4.4-3.7-5.8-6.4
	c-1.4-2.6-2.3-5.8-2.4-9.6h10.3C173.9,333,174.5,334.9,175.5,336.4 M229,289.2h10.3V350H229V289.2z M282.2,289.2v8.8h-12.6v37.8
	c0,1.2,0.1,2.1,0.3,2.8c0.2,0.7,0.6,1.3,1.2,1.7c0.6,0.4,1.4,0.6,2.4,0.7c1,0.1,2.4,0.2,4,0.2h4.8v8.8h-7.9c-2.6,0-5-0.2-6.9-0.5
	c-1.9-0.3-3.4-1-4.6-2c-1.2-0.9-2.1-2.3-2.6-4c-0.6-1.7-0.9-4-0.9-6.9V298h-10.7v-8.8h10.7v-18.3h10.3v18.3H282.2 M338.1,346.1
	c-4.7,3.5-10.6,5.2-17.8,5.2c-5,0-9.4-0.8-13-2.4c-3.7-1.6-6.8-3.8-9.3-6.6c-2.5-2.8-4.4-6.2-5.6-10.2c-1.3-3.9-2-8.2-2.2-12.8
	c0-4.7,0.7-8.9,2.2-12.8c1.5-3.8,3.5-7.2,6.1-10c2.6-2.8,5.7-5,9.4-6.6c3.6-1.6,7.6-2.4,11.9-2.4c5.6,0,10.2,1.1,13.9,3.3
	c3.7,2.3,6.6,5.1,8.9,8.5c2.2,3.5,3.7,7.3,4.6,11.3c0.8,4.1,1.2,7.9,1,11.6h-47.1c0,2.7,0.2,5.2,1,7.6c0.7,2.4,1.9,4.5,3.5,6.4
	c1.6,1.9,3.7,3.3,6.2,4.4c2.5,1.1,5.4,1.6,8.8,1.6c4.4,0,8-0.9,10.8-2.9c2.8-1.9,4.7-4.9,5.5-8.9h10.2
	C345.9,337.5,342.8,342.7,338.1,346.1L338.1,346.1z M335.6,307c-0.9-2.1-2.2-3.9-3.8-5.4c-1.6-1.5-3.4-2.7-5.6-3.7
	c-2.1-0.9-4.5-1.3-7.1-1.3c-2.6,0-5.1,0.4-7.2,1.3c-2.2,0.9-4,2.2-5.5,3.7c-1.5,1.6-2.7,3.4-3.6,5.5c-0.9,2.1-1.4,4.3-1.6,6.6h36.1
	C337.1,311.4,336.6,309.2,335.6,307L335.6,307z M369.6,289.2v8.2h0.2c1.7-3.4,4.4-5.8,8-7.4c3.6-1.6,7.7-2.3,12-2.3
	c4.9,0,9.1,0.8,12.7,2.6c3.6,1.7,6.6,4,9,7c2.4,2.9,4.2,6.4,5.4,10.2c1.2,3.9,1.8,7.9,1.8,12.3s-0.6,8.4-1.8,12.2
	c-1.2,3.9-2.9,7.2-5.3,10.1c-2.4,2.8-5.4,5.1-9,6.8c-3.6,1.6-7.8,2.5-12.6,2.5c-1.5,0-3.2-0.1-5.1-0.4c-1.9-0.3-3.8-0.8-5.6-1.6
	c-1.9-0.7-3.6-1.7-5.3-2.9c-1.7-1.2-3.1-2.7-4.2-4.5h-0.2v31.3h-10.3v-84.1H369.6L369.6,289.2z M406.8,310.7c-0.8-2.7-2-5.1-3.5-7.3
	c-1.6-2.1-3.6-3.8-6.1-5.1c-2.5-1.2-5.4-1.9-8.7-1.9c-3.5,0-6.4,0.6-8.9,2c-2.4,1.3-4.4,3.1-5.9,5.2c-1.5,2.2-2.6,4.7-3.3,7.4
	c-0.7,2.8-1,5.5-1,8.4c0,3,0.3,5.9,1.1,8.6c0.7,2.8,1.9,5.2,3.5,7.4c1.6,2.2,3.6,3.8,6.1,5.1c2.5,1.3,5.5,1.9,9.1,1.9s6.5-0.6,8.9-2
	c2.4-1.3,4.3-3.1,5.8-5.3c1.5-2.2,2.5-4.7,3.1-7.6c0.7-2.8,1-5.7,1-8.7C407.9,316.2,407.5,313.4,406.8,310.7L406.8,310.7z
	 M429.6,307.1c1.3-3.9,3.3-7.3,5.8-10.2c2.6-2.8,5.8-5.1,9.7-6.8c3.8-1.6,8.1-2.5,13.1-2.5c5.1,0,9.4,0.8,13.2,2.5
	c3.8,1.7,7,3.9,9.6,6.8c2.6,2.9,4.5,6.2,5.8,10.2c1.3,3.9,2,8,2,12.5c0,4.5-0.7,8.6-2,12.5c-1.3,3.8-3.2,7.2-5.8,10.1
	c-2.6,2.9-5.8,5.1-9.6,6.7c-3.8,1.6-8.1,2.4-13.2,2.4c-5,0-9.3-0.8-13.1-2.4c-3.8-1.6-7.1-3.8-9.7-6.7c-2.6-2.8-4.5-6.2-5.8-10.1
	c-1.3-3.9-1.9-8-1.9-12.5C427.6,315.1,428.3,311,429.6,307.1L429.6,307.1z M440.1,329.5c1,2.8,2.4,5.2,4.2,7.2
	c1.8,1.9,3.8,3.4,6.2,4.4c2.4,1,5,1.5,7.6,1.5c2.7,0,5.2-0.5,7.6-1.5c2.4-1,4.5-2.5,6.3-4.4c1.8-1.9,3.2-4.3,4.2-7.2
	c1-2.9,1.5-6.1,1.5-9.9c0-3.7-0.5-7-1.5-9.8c-1-2.8-2.4-5.3-4.2-7.3c-1.8-2-3.9-3.4-6.3-4.5c-2.4-1-4.9-1.5-7.6-1.5
	c-2.6,0-5.2,0.5-7.6,1.5c-2.4,1-4.5,2.5-6.2,4.5c-1.8,2-3.2,4.4-4.2,7.3c-1,2.8-1.5,6.1-1.5,9.8
	C438.6,323.3,439.1,326.6,440.1,329.5L440.1,329.5z M501.5,289.2h10.3V350h-10.3V289.2z M537.6,289.2v9.6h0.2
	c4.3-7.4,11.1-11,20.5-11c4.1,0,7.6,0.5,10.3,1.6c2.8,1.1,5,2.6,6.7,4.6c1.7,2,2.9,4.3,3.6,7c0.7,2.7,1,5.7,1,9V350h-10.3v-41.2
	c0-3.7-1.1-6.7-3.4-8.9c-2.3-2.2-5.4-3.3-9.4-3.3c-3.2,0-5.9,0.4-8.2,1.4c-2.3,0.9-4.2,2.3-5.7,4c-1.6,1.7-2.7,3.8-3.5,6.1
	c-0.8,2.3-1.1,4.9-1.1,7.6V350h-10.3v-60.9H537.6 M622.3,289.2v8.8h-12.5v37.8c0,1.2,0.1,2.1,0.3,2.8c0.2,0.7,0.6,1.3,1.2,1.7
	c0.5,0.4,1.3,0.6,2.4,0.7c1,0.1,2.4,0.2,3.9,0.2h4.8v8.8h-7.9c-2.6,0-5-0.2-6.9-0.5c-1.9-0.3-3.4-1-4.6-2c-1.2-0.9-2.1-2.3-2.6-4
	c-0.6-1.7-0.9-4-0.9-6.9V298h-10.7v-8.8h10.7v-18.3h10.3v18.3H622.3 M24.9,312.4l9.6,9.3l30.1,28.2l13-12.6c1.2-1.6,1.1-3.8-0.2-5.4
	l-11.9-10.4h0l-12.8-12.4c-1.5-1.7-1.5-4.3,0.1-5.9L87.3,270l-15.6-15.2L25,299.9C21.4,303.4,21.4,309,24.9,312.4 M127.6,328.5
	l-9.5-9.2l-30.2-28.2l-13,12.5c-1.2,1.7-1.1,3.9,0.2,5.4L87,319.5l0,0l12.8,12.4c1.5,1.7,1.5,4.2-0.1,5.9l-34.4,33.3l15.6,15.2
	l37.1-35.9l9.6-9.3C131.2,337.7,131.2,332,127.6,328.5 M240.1,276.7c0,3.2-2.7,5.8-6,5.8s-6-2.6-6-5.8c0-3.2,2.7-5.8,6-5.8
	S240.1,273.5,240.1,276.7 M512.6,276.7c0,3.2-2.7,5.8-6,5.8c-3.3,0-6-2.6-6-5.8c0-3.2,2.7-5.8,6-5.8
	C509.9,270.9,512.6,273.5,512.6,276.7"/>
</svg>
