<svg width="48" height="48" viewBox="0 0 48 48" fill="none" xmlns="http://www.w3.org/2000/svg">
<path d="M30.1199 24C30.5341 24.7174 30.2883 25.6348 29.5709 26.049C28.8534 26.4632 27.936 26.2174 27.5218 25.5C27.1076 24.7826 27.3534 23.8652 28.0709 23.451C28.7883 23.0367 29.7057 23.2826 30.1199 24Z" fill="black"/>
<path fill-rule="evenodd" clip-rule="evenodd" d="M22.7869 4.85489C23.5263 4.3817 24.4733 4.3817 25.2127 4.85489L43.9627 16.8549C45.0093 17.5247 45.3148 18.9162 44.6449 19.9629C43.9751 21.0095 42.5836 21.315 41.5369 20.6451L39.7498 19.5013L39.7498 37.5C39.7498 40.8137 37.0635 43.5 33.7498 43.5H14.2498C10.9361 43.5 8.24979 40.8137 8.24979 37.5L8.24979 19.5014L6.46266 20.6451C5.41602 21.315 4.02453 21.0095 3.35468 19.9629C2.68483 18.9162 2.99028 17.5247 4.03692 16.8549L22.7869 4.85489ZM31.6334 29.6213C34.3238 28.068 35.2456 24.6278 33.6923 21.9374C32.139 19.247 28.6988 18.3252 26.0084 19.8785C24.1345 20.9605 23.1186 22.9578 23.1994 24.9796L15.8347 29.2731C15.6787 29.3641 15.5607 29.5083 15.5025 29.6792L14.6158 32.2817C14.4588 32.7425 14.7755 33.2284 15.2605 33.2707L18.6299 33.565C18.7844 33.5785 18.9392 33.5438 19.0731 33.4657L25.8372 29.5197C27.5444 30.5855 29.7689 30.6978 31.6334 29.6213Z" fill="black"/>
</svg>
