<svg width="48" height="48" viewBox="0 0 48 48" fill="none" xmlns="http://www.w3.org/2000/svg">
<path d="M18.6321 27.7509C18.6326 27.1295 19.1367 26.6254 19.758 26.6249L22.8794 26.6222L22.8821 23.5156C22.8827 22.8943 23.3868 22.3902 24.0081 22.3896C24.6294 22.3891 25.1327 22.8923 25.1321 23.5136L25.1294 26.6202L28.236 26.6175C28.8573 26.617 29.3605 27.1202 29.36 27.7415C29.3594 28.3629 28.8553 28.867 28.234 28.8675L25.1275 28.8702L25.1247 31.9915C25.1242 32.6129 24.6201 33.117 23.9988 33.1175C23.3775 33.1181 22.8742 32.6148 22.8747 31.9935L22.8775 28.8722L19.7561 28.8749C19.1348 28.8754 18.6315 28.3722 18.6321 27.7509Z" fill="black"/>
<path fill-rule="evenodd" clip-rule="evenodd" d="M25.2127 4.85489C24.4733 4.3817 23.5263 4.3817 22.7869 4.85489L4.03692 16.8549C2.99028 17.5247 2.68483 18.9162 3.35468 19.9629C4.02453 21.0095 5.41602 21.315 6.46266 20.6451L8.24979 19.5014V37.5C8.24979 40.8137 10.9361 43.5 14.2498 43.5H33.7498C37.0635 43.5 39.7498 40.8137 39.7498 37.5V19.5013L41.5369 20.6451C42.5836 21.315 43.9751 21.0095 44.6449 19.9629C45.3148 18.9162 45.0093 17.5247 43.9627 16.8549L25.2127 4.85489ZM32.2498 27.75C32.2498 32.3063 28.5561 36 23.9998 36C19.4434 36 15.7498 32.3063 15.7498 27.75C15.7498 23.1937 19.4434 19.5 23.9998 19.5C28.5561 19.5 32.2498 23.1937 32.2498 27.75Z" fill="black"/>
</svg>
