<svg width="20" height="20" viewBox="0 0 20 20" fill="none" xmlns="http://www.w3.org/2000/svg">
<path d="M7.57812 8.75C7.57812 8.79315 7.54315 8.82812 7.5 8.82812H7.26562C7.22248 8.82812 7.1875 8.79315 7.1875 8.75C7.1875 8.70685 7.22248 8.67188 7.26562 8.67188H7.5C7.54315 8.67188 7.57812 8.70685 7.57812 8.75Z" fill="black"/>
<path d="M6.875 8.75C6.875 8.79315 6.84002 8.82812 6.79688 8.82812H6.5625C6.51935 8.82812 6.48438 8.79315 6.48438 8.75C6.48438 8.70685 6.51935 8.67188 6.5625 8.67188H6.79688C6.84002 8.67188 6.875 8.70685 6.875 8.75Z" fill="black"/>
<path d="M7.10938 8.4375C7.10938 8.39435 7.0744 8.35938 7.03125 8.35938C6.9881 8.35938 6.95312 8.39435 6.95312 8.4375V8.51562C6.95312 8.55877 6.9881 8.59375 7.03125 8.59375C7.0744 8.59375 7.10938 8.55877 7.10938 8.51562V8.4375Z" fill="black"/>
<path d="M7.10938 8.98438C7.10938 8.94123 7.0744 8.90625 7.03125 8.90625C6.9881 8.90625 6.95312 8.94123 6.95312 8.98438V9.0625C6.95312 9.10565 6.9881 9.14062 7.03125 9.14062C7.0744 9.14062 7.10938 9.10565 7.10938 9.0625V8.98438Z" fill="black"/>
<path d="M10.5469 8.75C10.5469 8.79315 10.5119 8.82812 10.4688 8.82812H10.2344C10.1912 8.82812 10.1562 8.79315 10.1562 8.75C10.1562 8.70685 10.1912 8.67188 10.2344 8.67188H10.4688C10.5119 8.67188 10.5469 8.70685 10.5469 8.75Z" fill="black"/>
<path d="M9.84375 8.75C9.84375 8.79315 9.80877 8.82812 9.76562 8.82812H9.53125C9.4881 8.82812 9.45312 8.79315 9.45312 8.75C9.45312 8.70685 9.4881 8.67188 9.53125 8.67188H9.76562C9.80877 8.67188 9.84375 8.70685 9.84375 8.75Z" fill="black"/>
<path d="M10.0781 8.4375C10.0781 8.39435 10.0431 8.35938 10 8.35938C9.95685 8.35938 9.92188 8.39435 9.92188 8.4375V8.51562C9.92188 8.55877 9.95685 8.59375 10 8.59375C10.0431 8.59375 10.0781 8.55877 10.0781 8.51562V8.4375Z" fill="black"/>
<path d="M10.0781 8.98438C10.0781 8.94123 10.0431 8.90625 10 8.90625C9.95685 8.90625 9.92188 8.94123 9.92188 8.98438V9.0625C9.92188 9.10565 9.95685 9.14062 10 9.14062C10.0431 9.14062 10.0781 9.10565 10.0781 9.0625V8.98438Z" fill="black"/>
<path d="M13.5156 8.75C13.5156 8.79315 13.4806 8.82812 13.4375 8.82812H13.2031C13.16 8.82812 13.125 8.79315 13.125 8.75C13.125 8.70685 13.16 8.67188 13.2031 8.67188H13.4375C13.4806 8.67188 13.5156 8.70685 13.5156 8.75Z" fill="black"/>
<path d="M12.8125 8.75C12.8125 8.79315 12.7775 8.82812 12.7344 8.82812H12.5C12.4569 8.82812 12.4219 8.79315 12.4219 8.75C12.4219 8.70685 12.4569 8.67188 12.5 8.67188H12.7344C12.7775 8.67188 12.8125 8.70685 12.8125 8.75Z" fill="black"/>
<path d="M13.0469 8.4375C13.0469 8.39435 13.0119 8.35938 12.9688 8.35938C12.9256 8.35938 12.8906 8.39435 12.8906 8.4375V8.51562C12.8906 8.55877 12.9256 8.59375 12.9688 8.59375C13.0119 8.59375 13.0469 8.55877 13.0469 8.51562V8.4375Z" fill="black"/>
<path d="M13.0469 8.98438C13.0469 8.94123 13.0119 8.90625 12.9688 8.90625C12.9256 8.90625 12.8906 8.94123 12.8906 8.98438V9.0625C12.8906 9.10565 12.9256 9.14062 12.9688 9.14062C13.0119 9.14062 13.0469 9.10565 13.0469 9.0625V8.98438Z" fill="black"/>
<path fill-rule="evenodd" clip-rule="evenodd" d="M5.1435 6.95312C4.93409 6.95312 4.76193 7.11826 4.75321 7.32749L4.67439 9.2192L2.6547 9.29688C2.43968 9.29771 2.26562 9.47228 2.26562 9.6875V15.3125C2.26562 15.5282 2.44051 15.7031 2.65625 15.7031H17.3438C17.5595 15.7031 17.7344 15.5282 17.7344 15.3125V9.6875C17.7344 9.47176 17.5595 9.29688 17.3438 9.29688H17.2672L15.3256 9.21921L15.2468 7.32749C15.2381 7.11826 15.0659 6.95312 14.8565 6.95312H5.1435ZM16.7188 9.45312C16.5893 9.45312 16.4844 9.55806 16.4844 9.6875V15.5469H17.3438C17.4732 15.5469 17.5781 15.4419 17.5781 15.3125V9.6875C17.5781 9.55806 17.4732 9.45312 17.3438 9.45312H16.7188ZM16.3281 10.9643V9.6875C16.3281 9.58396 16.3684 9.48983 16.4342 9.41993L15.3321 9.37585L15.3874 10.7031H15.7812C16.0021 10.7031 16.1992 10.805 16.3281 10.9643ZM16.3281 15.5469V13.0469H3.67188V15.5469H16.3281ZM16.3281 12.8906V12.5781H3.67188V12.8906H16.3281ZM16.3281 12.4219V11.4062C16.3281 11.1042 16.0833 10.8594 15.7812 10.8594H4.21875C3.91672 10.8594 3.67188 11.1042 3.67188 11.4062V12.4219H16.3281ZM2.6557 9.45313C2.52651 9.45342 2.42188 9.55824 2.42188 9.6875V15.3125C2.42188 15.4419 2.52681 15.5469 2.65625 15.5469H3.51562V9.6875C3.51562 9.55806 3.41069 9.45312 3.28125 9.45312L2.6557 9.45313ZM3.67188 9.6875V10.9643C3.80078 10.805 3.99787 10.7031 4.21875 10.7031H4.61256L4.66787 9.37581L3.56427 9.41826C3.63095 9.48833 3.67188 9.58314 3.67188 9.6875ZM15.2311 10.7031L15.0907 7.33399C15.0854 7.20846 14.9821 7.10938 14.8565 7.10938H5.1435C5.01785 7.10938 4.91456 7.20846 4.90933 7.33399L4.76895 10.7031H15.2311Z" fill="black"/>
</svg>
